<svg xmlns="http://www.w3.org/2000/svg" viewBox="0 0 400 400" width="400" height="400">
  <!-- 背景 -->
  <rect width="400" height="400" fill="#f3f4f6"/>

  <!-- 邊框 -->
  <rect x="20" y="20" width="360" height="360" fill="none" stroke="#d1d5db" stroke-width="2"/>

  <!-- Montbell 官方商標 (縮放並置於上方) -->
  <g id="montbell-logo" transform="translate(200, 50) scale(2.5)">
    <!-- 官方 Montbell 商標路徑 -->
    <path
       style="fill:#33576e;fill-opacity:1;fill-rule:nonzero;stroke:none"
       d="m 93.566883,92.997229 c 0.324525,0 0.587008,-0.264866 0.587008,-0.589391 v -0.937784 c 0,-0.324525 -0.262483,-0.589391 -0.587008,-0.589391 h -0.940167 c -0.324526,0 -0.587012,0.264866 -0.587012,0.589391 v 0.937784 c 0,0.324525 0.262486,0.589391 0.587012,0.589391 z m 0,0" />
    <path
       style="fill:#33576e;fill-opacity:1;fill-rule:nonzero;stroke:none"
       d="m 54.781371,90.825777 c -0.329294,-0.133639 -0.553601,-0.178969 -0.553601,-0.493946 0,-0.252937 0.238625,-0.448612 0.718251,-0.701548 l 1.644101,-0.897216 c 0.150334,-0.09068 0.283958,-0.136014 0.388955,-0.136014 0.224304,0 0.255325,0.17896 0.269644,0.493943 l 0.04534,0.79222 c 0.732567,-0.806538 1.465137,-1.212193 2.271674,-1.212193 0.792227,0 1.376849,0.388953 1.85648,1.181173 0.656208,-0.79222 1.255143,-1.181173 2.002028,-1.181173 1.183562,0 1.916131,0.749268 2.333717,2.348034 l 0.434291,1.660806 c 0.283958,1.107201 0.462924,1.780111 0.7612,2.033049 0.255325,0.224305 0.584626,0.300663 0.584626,0.6586 0,0.329293 -0.283962,0.493941 -0.851882,0.493941 H 64.33816 c -0.58462,0 -0.868576,-0.104988 -0.868576,-0.493941 0,-0.224308 0.1193,-0.343618 0.329296,-0.491564 0.269643,-0.181349 0.522581,-0.255325 0.522581,-0.524965 0,-0.283963 -0.133638,-1.092889 -0.508262,-2.37667 -0.329296,-1.166855 -0.58224,-1.734775 -1.226514,-1.734775 -0.596557,0 -1.030843,0.508263 -1.030843,1.37446 v 2.407684 c 0,0.360322 0.09066,0.570308 0.357928,0.749275 0.283964,0.193281 0.553603,0.2243 0.553603,0.596555 0,0.283955 -0.207599,0.493941 -0.567915,0.493941 h -2.705963 c -0.343615,0 -0.553603,-0.193279 -0.553603,-0.493941 0,-0.372255 0.252941,-0.403274 0.539283,-0.596555 0.252937,-0.178967 0.341234,-0.388953 0.341234,-0.749275 v -2.362345 c 0,-0.942556 -0.357934,-1.45082 -0.956875,-1.45082 -0.656208,0 -1.300488,0.672912 -1.300488,1.405481 v 2.407684 c 0,0.360322 0.09067,0.570308 0.343616,0.749275 0.283962,0.193281 0.5536,0.2243 0.5536,0.596555 0,0.300662 -0.2243,0.493941 -0.567913,0.493941 h -2.782325 c -0.343616,0 -0.553601,-0.193279 -0.553601,-0.493941 0,-0.372255 0.269636,-0.403274 0.553601,-0.596555 0.255324,-0.178967 0.329294,-0.388953 0.329294,-0.749275 v -2.572333 c 0,-0.372253 -0.02866,-0.49395 -0.357934,-0.627576" />
  </g>

  <!-- 相機圖標 -->
  <g transform="translate(200, 200)">
    <!-- 相機外殼 -->
    <rect x="-40" y="-35" width="80" height="70" rx="8" fill="none" stroke="#9ca3af" stroke-width="2"/>

    <!-- 鏡頭 -->
    <circle cx="0" cy="-10" r="25" fill="none" stroke="#9ca3af" stroke-width="2"/>
    <circle cx="0" cy="-10" r="18" fill="none" stroke="#d1d5db" stroke-width="1"/>

    <!-- 閃光燈 -->
    <rect x="20" y="-30" width="12" height="10" rx="2" fill="#d1d5db"/>
  </g>

  <!-- 文字 -->
  <text x="200" y="310" font-family="Arial, sans-serif" font-size="24" font-weight="bold" text-anchor="middle" fill="#6b7280">
    暫無商品圖
  </text>

  <!-- 副文字 -->
  <text x="200" y="350" font-family="Arial, sans-serif" font-size="14" text-anchor="middle" fill="#9ca3af">
    此顏色暫無圖片
  </text>
</svg>
